<?xml version="1.0" encoding="UTF-8" standalone="no"?>
<!DOCTYPE svg PUBLIC "-//W3C//DTD SVG 1.1//EN"
 "http://www.w3.org/Graphics/SVG/1.1/DTD/svg11.dtd">
<!-- Generated by graphviz version 3.0.0 (20220226.1711)
 -->
<!-- Pages: 1 -->
<svg width="894pt" height="308pt"
 viewBox="0.00 0.00 894.27 308.00" xmlns="http://www.w3.org/2000/svg" xmlns:xlink="http://www.w3.org/1999/xlink">
<g id="graph0" class="graph" transform="scale(1 1) rotate(0) translate(4 304)">
<polygon fill="white" stroke="transparent" points="-4,4 -4,-304 890.27,-304 890.27,4 -4,4"/>
<!-- split0 -->
<g id="node1" class="node">
<title>split0</title>
<polygon fill="none" stroke="black" points="97,-180 0,-180 0,-144 97,-144 97,-180"/>
<text text-anchor="start" x="8" y="-159.3" font-family="Times New Roman,serif" font-weight="bold" font-size="14.00">PR20</text>
<text text-anchor="start" x="43" y="-159.3" font-family="Times New Roman,serif" font-size="14.00"> ≤</text>
<text text-anchor="start" x="55" y="-159.3" font-family="Times New Roman,serif" font-weight="bold" font-size="14.00">0.397</text>
</g>
<!-- split2 -->
<g id="node2" class="node">
<title>split2</title>
<polygon fill="none" stroke="black" points="254,-200 138,-200 138,-164 254,-164 254,-200"/>
<text text-anchor="start" x="146" y="-179.3" font-family="Times New Roman,serif" font-weight="bold" font-size="14.00">MOM20</text>
<text text-anchor="start" x="200" y="-179.3" font-family="Times New Roman,serif" font-size="14.00"> ≤</text>
<text text-anchor="start" x="212" y="-179.3" font-family="Times New Roman,serif" font-weight="bold" font-size="14.00">0.725</text>
</g>
<!-- split0&#45;&gt;split2 -->
<g id="edge7" class="edge">
<title>split0&#45;&gt;split2</title>
<path fill="none" stroke="black" d="M97.14,-168.55C106.9,-169.89 117.35,-171.33 127.65,-172.74"/>
<polygon fill="black" stroke="black" points="127.49,-176.25 137.87,-174.15 128.44,-169.32 127.49,-176.25"/>
<text text-anchor="middle" x="117.5" y="-175.8" font-family="Times New Roman,serif" font-size="14.00">yes</text>
</g>
<!-- split1 -->
<g id="node9" class="node">
<title>split1</title>
<polygon fill="none" stroke="black" points="254,-160 138,-160 138,-124 254,-124 254,-160"/>
<text text-anchor="start" x="146" y="-139.3" font-family="Times New Roman,serif" font-weight="bold" font-size="14.00">MOM10</text>
<text text-anchor="start" x="200" y="-139.3" font-family="Times New Roman,serif" font-size="14.00"> ≤</text>
<text text-anchor="start" x="212" y="-139.3" font-family="Times New Roman,serif" font-weight="bold" font-size="14.00">0.672</text>
</g>
<!-- split0&#45;&gt;split1 -->
<g id="edge18" class="edge">
<title>split0&#45;&gt;split1</title>
<path fill="none" stroke="black" d="M97.14,-155.45C106.9,-154.11 117.35,-152.67 127.65,-151.26"/>
<polygon fill="black" stroke="black" points="128.44,-154.68 137.87,-149.85 127.49,-147.75 128.44,-154.68"/>
<text text-anchor="middle" x="117.5" y="-156.8" font-family="Times New Roman,serif" font-size="14.00">no</text>
</g>
<!-- split3 -->
<g id="node3" class="node">
<title>split3</title>
<polygon fill="none" stroke="black" points="398.29,-240 311.29,-240 311.29,-204 398.29,-204 398.29,-240"/>
<text text-anchor="start" x="319.29" y="-219.3" font-family="Times New Roman,serif" font-weight="bold" font-size="14.00">H&#45;L</text>
<text text-anchor="start" x="344.29" y="-219.3" font-family="Times New Roman,serif" font-size="14.00"> ≤</text>
<text text-anchor="start" x="356.29" y="-219.3" font-family="Times New Roman,serif" font-weight="bold" font-size="14.00">0.007</text>
</g>
<!-- split2&#45;&gt;split3 -->
<g id="edge5" class="edge">
<title>split2&#45;&gt;split3</title>
<path fill="none" stroke="black" d="M254.05,-196.55C269.56,-200.51 286.29,-204.78 301.52,-208.66"/>
<polygon fill="black" stroke="black" points="300.74,-212.08 311.29,-211.16 302.47,-205.29 300.74,-212.08"/>
<text text-anchor="middle" x="274.5" y="-206.8" font-family="Times New Roman,serif" font-size="14.00">yes</text>
</g>
<!-- leaf3 -->
<g id="node8" class="node">
<title>leaf3</title>
<ellipse fill="none" stroke="black" cx="354.79" cy="-182" rx="59.59" ry="18"/>
<text text-anchor="start" x="316.79" y="-179.3" font-family="Times New Roman,serif" font-size="14.00">leaf 3: </text>
<text text-anchor="start" x="353.79" y="-179.3" font-family="Times New Roman,serif" font-weight="bold" font-size="14.00">&#45;0.154</text>
</g>
<!-- split2&#45;&gt;leaf3 -->
<g id="edge6" class="edge">
<title>split2&#45;&gt;leaf3</title>
<path fill="none" stroke="black" d="M254.05,-182C264.03,-182 274.51,-182 284.78,-182"/>
<polygon fill="black" stroke="black" points="284.94,-185.5 294.94,-182 284.94,-178.5 284.94,-185.5"/>
<text text-anchor="middle" x="274.5" y="-185.8" font-family="Times New Roman,serif" font-size="14.00">no</text>
</g>
<!-- split4 -->
<g id="node4" class="node">
<title>split4</title>
<polygon fill="none" stroke="black" points="571.59,-280 455.59,-280 455.59,-244 571.59,-244 571.59,-280"/>
<text text-anchor="start" x="463.59" y="-259.3" font-family="Times New Roman,serif" font-weight="bold" font-size="14.00">MOM20</text>
<text text-anchor="start" x="517.59" y="-259.3" font-family="Times New Roman,serif" font-size="14.00"> ≤</text>
<text text-anchor="start" x="529.59" y="-259.3" font-family="Times New Roman,serif" font-weight="bold" font-size="14.00">0.575</text>
</g>
<!-- split3&#45;&gt;split4 -->
<g id="edge3" class="edge">
<title>split3&#45;&gt;split4</title>
<path fill="none" stroke="black" d="M398.64,-232.93C413.13,-236.63 429.68,-240.85 445.59,-244.91"/>
<polygon fill="black" stroke="black" points="444.83,-248.33 455.39,-247.41 446.56,-241.54 444.83,-248.33"/>
<text text-anchor="middle" x="435.09" y="-247.8" font-family="Times New Roman,serif" font-size="14.00">yes</text>
</g>
<!-- leaf4 -->
<g id="node7" class="node">
<title>leaf4</title>
<ellipse fill="none" stroke="black" cx="513.59" cy="-222" rx="56.59" ry="18"/>
<text text-anchor="start" x="478.09" y="-219.3" font-family="Times New Roman,serif" font-size="14.00">leaf 4: </text>
<text text-anchor="start" x="515.09" y="-219.3" font-family="Times New Roman,serif" font-weight="bold" font-size="14.00">0.141</text>
</g>
<!-- split3&#45;&gt;leaf4 -->
<g id="edge4" class="edge">
<title>split3&#45;&gt;leaf4</title>
<path fill="none" stroke="black" d="M398.64,-222C413.51,-222 430.54,-222 446.82,-222"/>
<polygon fill="black" stroke="black" points="446.84,-225.5 456.84,-222 446.84,-218.5 446.84,-225.5"/>
<text text-anchor="middle" x="435.09" y="-225.8" font-family="Times New Roman,serif" font-size="14.00">no</text>
</g>
<!-- leaf0 -->
<g id="node5" class="node">
<title>leaf0</title>
<ellipse fill="none" stroke="black" cx="672.38" cy="-282" rx="56.59" ry="18"/>
<text text-anchor="start" x="636.88" y="-279.3" font-family="Times New Roman,serif" font-size="14.00">leaf 0: </text>
<text text-anchor="start" x="673.88" y="-279.3" font-family="Times New Roman,serif" font-weight="bold" font-size="14.00">0.067</text>
</g>
<!-- split4&#45;&gt;leaf0 -->
<g id="edge1" class="edge">
<title>split4&#45;&gt;leaf0</title>
<path fill="none" stroke="black" d="M571.64,-269.28C583.88,-270.84 596.88,-272.5 609.31,-274.08"/>
<polygon fill="black" stroke="black" points="609.22,-277.6 619.58,-275.39 610.1,-270.65 609.22,-277.6"/>
<text text-anchor="middle" x="592.09" y="-275.8" font-family="Times New Roman,serif" font-size="14.00">yes</text>
</g>
<!-- leaf5 -->
<g id="node6" class="node">
<title>leaf5</title>
<ellipse fill="none" stroke="black" cx="672.38" cy="-242" rx="59.59" ry="18"/>
<text text-anchor="start" x="634.38" y="-239.3" font-family="Times New Roman,serif" font-size="14.00">leaf 5: </text>
<text text-anchor="start" x="671.38" y="-239.3" font-family="Times New Roman,serif" font-weight="bold" font-size="14.00">&#45;0.274</text>
</g>
<!-- split4&#45;&gt;leaf5 -->
<g id="edge2" class="edge">
<title>split4&#45;&gt;leaf5</title>
<path fill="none" stroke="black" d="M571.64,-254.72C583.08,-253.26 595.19,-251.72 606.86,-250.23"/>
<polygon fill="black" stroke="black" points="607.51,-253.68 616.99,-248.94 606.63,-246.73 607.51,-253.68"/>
<text text-anchor="middle" x="592.09" y="-256.8" font-family="Times New Roman,serif" font-size="14.00">no</text>
</g>
<!-- split5 -->
<g id="node10" class="node">
<title>split5</title>
<polygon fill="none" stroke="black" points="403.29,-160 306.29,-160 306.29,-124 403.29,-124 403.29,-160"/>
<text text-anchor="start" x="314.29" y="-139.3" font-family="Times New Roman,serif" font-weight="bold" font-size="14.00">PR30</text>
<text text-anchor="start" x="349.29" y="-139.3" font-family="Times New Roman,serif" font-size="14.00"> ≤</text>
<text text-anchor="start" x="361.29" y="-139.3" font-family="Times New Roman,serif" font-weight="bold" font-size="14.00">0.446</text>
</g>
<!-- split1&#45;&gt;split5 -->
<g id="edge10" class="edge">
<title>split1&#45;&gt;split5</title>
<path fill="none" stroke="black" d="M254.05,-142C267.66,-142 282.19,-142 295.84,-142"/>
<polygon fill="black" stroke="black" points="296.07,-145.5 306.07,-142 296.07,-138.5 296.07,-145.5"/>
<text text-anchor="middle" x="274.5" y="-145.8" font-family="Times New Roman,serif" font-size="14.00">yes</text>
</g>
<!-- split6 -->
<g id="node13" class="node">
<title>split6</title>
<polygon fill="none" stroke="black" points="399.79,-120 309.79,-120 309.79,-84 399.79,-84 399.79,-120"/>
<text text-anchor="start" x="317.79" y="-99.3" font-family="Times New Roman,serif" font-weight="bold" font-size="14.00">PR5</text>
<text text-anchor="start" x="345.79" y="-99.3" font-family="Times New Roman,serif" font-size="14.00"> ≤</text>
<text text-anchor="start" x="357.79" y="-99.3" font-family="Times New Roman,serif" font-weight="bold" font-size="14.00">0.496</text>
</g>
<!-- split1&#45;&gt;split6 -->
<g id="edge17" class="edge">
<title>split1&#45;&gt;split6</title>
<path fill="none" stroke="black" d="M254.05,-127.45C268.85,-123.67 284.74,-119.62 299.4,-115.88"/>
<polygon fill="black" stroke="black" points="300.5,-119.21 309.32,-113.35 298.77,-112.43 300.5,-119.21"/>
<text text-anchor="middle" x="274.5" y="-127.8" font-family="Times New Roman,serif" font-size="14.00">no</text>
</g>
<!-- leaf1 -->
<g id="node11" class="node">
<title>leaf1</title>
<ellipse fill="none" stroke="black" cx="513.59" cy="-182" rx="56.59" ry="18"/>
<text text-anchor="start" x="478.09" y="-179.3" font-family="Times New Roman,serif" font-size="14.00">leaf 1: </text>
<text text-anchor="start" x="515.09" y="-179.3" font-family="Times New Roman,serif" font-weight="bold" font-size="14.00">0.384</text>
</g>
<!-- split5&#45;&gt;leaf1 -->
<g id="edge8" class="edge">
<title>split5&#45;&gt;leaf1</title>
<path fill="none" stroke="black" d="M403.69,-154.22C421.24,-158.7 441.21,-163.79 459.22,-168.38"/>
<polygon fill="black" stroke="black" points="458.43,-171.8 468.99,-170.88 460.16,-165.01 458.43,-171.8"/>
<text text-anchor="middle" x="435.09" y="-167.8" font-family="Times New Roman,serif" font-size="14.00">yes</text>
</g>
<!-- leaf6 -->
<g id="node12" class="node">
<title>leaf6</title>
<ellipse fill="none" stroke="black" cx="513.59" cy="-142" rx="56.59" ry="18"/>
<text text-anchor="start" x="478.09" y="-139.3" font-family="Times New Roman,serif" font-size="14.00">leaf 6: </text>
<text text-anchor="start" x="515.09" y="-139.3" font-family="Times New Roman,serif" font-weight="bold" font-size="14.00">0.094</text>
</g>
<!-- split5&#45;&gt;leaf6 -->
<g id="edge9" class="edge">
<title>split5&#45;&gt;leaf6</title>
<path fill="none" stroke="black" d="M403.69,-142C417.24,-142 432.23,-142 446.65,-142"/>
<polygon fill="black" stroke="black" points="447.02,-145.5 457.02,-142 447.02,-138.5 447.02,-145.5"/>
<text text-anchor="middle" x="435.09" y="-145.8" font-family="Times New Roman,serif" font-size="14.00">no</text>
</g>
<!-- leaf2 -->
<g id="node14" class="node">
<title>leaf2</title>
<ellipse fill="none" stroke="black" cx="513.59" cy="-102" rx="56.59" ry="18"/>
<text text-anchor="start" x="478.09" y="-99.3" font-family="Times New Roman,serif" font-size="14.00">leaf 2: </text>
<text text-anchor="start" x="515.09" y="-99.3" font-family="Times New Roman,serif" font-weight="bold" font-size="14.00">0.069</text>
</g>
<!-- split6&#45;&gt;leaf2 -->
<g id="edge11" class="edge">
<title>split6&#45;&gt;leaf2</title>
<path fill="none" stroke="black" d="M399.89,-102C414.38,-102 430.81,-102 446.57,-102"/>
<polygon fill="black" stroke="black" points="446.79,-105.5 456.79,-102 446.79,-98.5 446.79,-105.5"/>
<text text-anchor="middle" x="435.09" y="-105.8" font-family="Times New Roman,serif" font-size="14.00">yes</text>
</g>
<!-- split7 -->
<g id="node15" class="node">
<title>split7</title>
<polygon fill="none" stroke="black" points="571.59,-80 455.59,-80 455.59,-44 571.59,-44 571.59,-80"/>
<text text-anchor="start" x="463.59" y="-59.3" font-family="Times New Roman,serif" font-weight="bold" font-size="14.00">MOM20</text>
<text text-anchor="start" x="517.59" y="-59.3" font-family="Times New Roman,serif" font-size="14.00"> ≤</text>
<text text-anchor="start" x="529.59" y="-59.3" font-family="Times New Roman,serif" font-weight="bold" font-size="14.00">0.609</text>
</g>
<!-- split6&#45;&gt;split7 -->
<g id="edge16" class="edge">
<title>split6&#45;&gt;split7</title>
<path fill="none" stroke="black" d="M399.89,-90.75C414.01,-87.15 429.97,-83.08 445.35,-79.15"/>
<polygon fill="black" stroke="black" points="446.53,-82.47 455.35,-76.6 444.8,-75.68 446.53,-82.47"/>
<text text-anchor="middle" x="435.09" y="-86.8" font-family="Times New Roman,serif" font-size="14.00">no</text>
</g>
<!-- leaf7 -->
<g id="node16" class="node">
<title>leaf7</title>
<ellipse fill="none" stroke="black" cx="672.38" cy="-78" rx="56.59" ry="18"/>
<text text-anchor="start" x="636.88" y="-75.3" font-family="Times New Roman,serif" font-size="14.00">leaf 7: </text>
<text text-anchor="start" x="673.88" y="-75.3" font-family="Times New Roman,serif" font-weight="bold" font-size="14.00">0.017</text>
</g>
<!-- split7&#45;&gt;leaf7 -->
<g id="edge12" class="edge">
<title>split7&#45;&gt;leaf7</title>
<path fill="none" stroke="black" d="M571.64,-67.82C583.54,-69.04 596.16,-70.32 608.26,-71.56"/>
<polygon fill="black" stroke="black" points="607.98,-75.05 618.29,-72.58 608.7,-68.08 607.98,-75.05"/>
<text text-anchor="middle" x="592.09" y="-73.8" font-family="Times New Roman,serif" font-size="14.00">yes</text>
</g>
<!-- split8 -->
<g id="node17" class="node">
<title>split8</title>
<polygon fill="none" stroke="black" points="720.88,-56 623.88,-56 623.88,-20 720.88,-20 720.88,-56"/>
<text text-anchor="start" x="631.88" y="-35.3" font-family="Times New Roman,serif" font-weight="bold" font-size="14.00">PR20</text>
<text text-anchor="start" x="666.88" y="-35.3" font-family="Times New Roman,serif" font-size="14.00"> ≤</text>
<text text-anchor="start" x="678.88" y="-35.3" font-family="Times New Roman,serif" font-weight="bold" font-size="14.00">0.414</text>
</g>
<!-- split7&#45;&gt;split8 -->
<g id="edge15" class="edge">
<title>split7&#45;&gt;split8</title>
<path fill="none" stroke="black" d="M571.64,-53.27C585.25,-51.18 599.78,-48.96 613.43,-46.87"/>
<polygon fill="black" stroke="black" points="614.3,-50.28 623.66,-45.31 613.24,-43.36 614.3,-50.28"/>
<text text-anchor="middle" x="592.09" y="-54.8" font-family="Times New Roman,serif" font-size="14.00">no</text>
</g>
<!-- leaf8 -->
<g id="node18" class="node">
<title>leaf8</title>
<ellipse fill="none" stroke="black" cx="829.72" cy="-58" rx="56.59" ry="18"/>
<text text-anchor="start" x="794.22" y="-55.3" font-family="Times New Roman,serif" font-size="14.00">leaf 8: </text>
<text text-anchor="start" x="831.22" y="-55.3" font-family="Times New Roman,serif" font-weight="bold" font-size="14.00">0.271</text>
</g>
<!-- split8&#45;&gt;leaf8 -->
<g id="edge13" class="edge">
<title>split8&#45;&gt;leaf8</title>
<path fill="none" stroke="black" d="M721.26,-44.16C735.6,-46.01 751.54,-48.06 766.66,-50.01"/>
<polygon fill="black" stroke="black" points="766.59,-53.53 776.96,-51.34 767.49,-46.59 766.59,-53.53"/>
<text text-anchor="middle" x="752.68" y="-52.8" font-family="Times New Roman,serif" font-size="14.00">yes</text>
</g>
<!-- leaf9 -->
<g id="node19" class="node">
<title>leaf9</title>
<ellipse fill="none" stroke="black" cx="829.72" cy="-18" rx="56.59" ry="18"/>
<text text-anchor="start" x="794.22" y="-15.3" font-family="Times New Roman,serif" font-size="14.00">leaf 9: </text>
<text text-anchor="start" x="831.22" y="-15.3" font-family="Times New Roman,serif" font-weight="bold" font-size="14.00">0.065</text>
</g>
<!-- split8&#45;&gt;leaf9 -->
<g id="edge14" class="edge">
<title>split8&#45;&gt;leaf9</title>
<path fill="none" stroke="black" d="M721.26,-31.84C735.6,-29.99 751.54,-27.94 766.66,-25.99"/>
<polygon fill="black" stroke="black" points="767.49,-29.41 776.96,-24.66 766.59,-22.47 767.49,-29.41"/>
<text text-anchor="middle" x="752.68" y="-31.8" font-family="Times New Roman,serif" font-size="14.00">no</text>
</g>
</g>
</svg>
